<mxfile host="app.diagrams.net" modified="2024-02-12T08:49:21.199Z" agent="Mozilla/5.0 (Windows NT 10.0; Win64; x64; rv:122.0) Gecko/20100101 Firefox/122.0" version="23.1.2" etag="g9ipZUkG_5Cp683iI60A" type="github">
  <diagram name="PÃ¡gina-1" id="JlnmGvt2A787iFXEalAE">
    <mxGraphModel>
      <root>
        <mxCell id="0" />
        <mxCell id="1" parent="0" />
      </root>
    </mxGraphModel>
  </diagram>
</mxfile>
